<svg id="Capa_1" data-name="Capa 1" xmlns="http://www.w3.org/2000/svg" viewBox="0 0 204.81 204.81"><defs><style>.cls-1{fill:#f0805e;}.cls-2{fill:#fff;}</style></defs><circle class="cls-1" cx="102.4" cy="102.4" r="102.4"/><path class="cls-2" d="M176.56,241.14q11.72-14.73,31-18.41,19.59-3.85,32.81,6.86,17.91,13.89,15.23,32.64a25.69,25.69,0,0,1-10.38,17.07q-8.87,6.19-9.54,13.56-.84,6-6.86,9.2a24.67,24.67,0,0,1-13.06,2.51,26.42,26.42,0,0,1-12.88-4.35A12.41,12.41,0,0,1,197,290a19.3,19.3,0,0,1,3.18-10.29,27.16,27.16,0,0,1,7.2-8,21.64,21.64,0,0,0,5.94-5.52q1.75-2.69-.09-4.69a6.7,6.7,0,0,0-3-1.76,2.9,2.9,0,0,0-2.51.76,11.77,11.77,0,0,0-2.09,2.34l-2.34,3.35a25,25,0,0,1-2.6,3.18q-7.2,7.2-16.57,1.34a22.33,22.33,0,0,1-10.54-14.23A17.12,17.12,0,0,1,176.56,241.14Zm37.32,105.78a18.76,18.76,0,0,1-13.3-5.36,17.31,17.31,0,0,1-5.27-12.88q0-9,5.35-14.48t14.73-5.44A20,20,0,0,1,229.53,314,16.91,16.91,0,0,1,235,327.34q-.16,9.54-5.86,14.64T213.88,346.92Z" transform="translate(-112.91 -175.78)"/></svg>